<?xml version="1.0" standalone="no"?>
<!DOCTYPE svg PUBLIC "-//W3C//DTD SVG 20010904//EN"
 "http://www.w3.org/TR/2001/REC-SVG-20010904/DTD/svg10.dtd">
<svg version="1.0" xmlns="http://www.w3.org/2000/svg"
 width="1440.000000pt" height="764.000000pt" viewBox="0 0 1440.000000 764.000000"
 preserveAspectRatio="xMidYMid meet">

<g transform="translate(0.000000,764.000000) scale(0.100000,-0.100000)"
fill="#000000" stroke="none">
<path d="M8825 7181 c-44 -27 -259 -225 -421 -387 -161 -162 -323 -341 -430
-475 -145 -182 -149 -192 -102 -264 120 -181 878 -816 1078 -902 l59 -26 48
28 c58 33 487 461 627 625 54 63 150 183 212 266 160 213 168 177 -98 439
-285 281 -394 376 -603 527 -270 194 -305 210 -370 169z m499 -723 c33 -114
53 -339 42 -460 -7 -66 -10 -75 -34 -89 -26 -15 -31 -14 -107 24 -117 57 -244
139 -251 161 -8 26 31 59 58 50 11 -3 48 -25 81 -48 34 -24 76 -48 94 -54 30
-10 32 -9 42 20 14 41 14 145 -1 225 -10 54 -15 64 -36 70 -42 10 -69 -11
-414 -335 -132 -124 -226 -191 -248 -177 -40 25 -88 388 -69 521 6 43 13 82
15 86 12 19 80 5 152 -31 85 -44 214 -130 219 -147 2 -7 -7 -25 -20 -40 l-25
-28 -36 19 -36 20 -64 -64 c-62 -62 -64 -63 -76 -41 -17 31 -6 62 40 111 22
24 40 46 40 50 0 12 -69 31 -87 25 -27 -11 -8 -296 23 -334 1 -2 16 4 33 13
40 20 154 118 364 314 175 163 213 191 259 191 25 0 29 -6 42 -52z"/>
<path d="M1895 6891 c-56 -20 -221 -103 -246 -123 -28 -24 -99 -119 -134 -183
-73 -130 -118 -285 -131 -453 l-7 -93 -57 55 c-96 92 -139 91 -189 -4 -45 -84
-209 -442 -229 -499 l-15 -44 29 -24 c16 -13 110 -80 209 -150 427 -301 482
-341 540 -399 83 -82 120 -157 119 -244 0 -57 -10 -89 -81 -265 -220 -543
-473 -1130 -795 -1840 -135 -297 -276 -611 -314 -698 l-68 -157 40 -41 c21
-22 63 -52 93 -66 45 -22 66 -26 130 -25 42 0 283 4 537 7 l461 7 70 116 c39
65 144 248 233 407 90 160 164 292 167 294 10 12 127 -24 356 -107 137 -50
251 -92 253 -95 3 -3 37 -130 75 -283 39 -154 75 -296 80 -316 l10 -38 150 0
c83 0 226 5 317 10 92 6 271 14 399 18 131 4 236 11 241 17 6 6 15 271 21 610
19 975 37 1646 67 2398 12 290 13 415 6 432 -9 20 -36 29 -219 74 -114 27
-372 87 -573 131 -631 139 -885 211 -1040 291 -149 78 -205 137 -235 250 -16
61 -1 140 46 235 37 75 129 186 192 233 l46 34 -31 46 c-17 25 -91 123 -163
216 -72 94 -149 196 -171 227 -39 57 -39 58 -89 58 -27 -1 -72 -9 -100 -19z
m1031 -2613 c114 -28 134 -36 147 -58 22 -37 41 -361 34 -595 -3 -104 -8 -199
-12 -210 -10 -31 -122 -99 -159 -97 -56 4 -259 59 -380 104 -174 63 -173 35
-14 477 114 317 139 369 188 393 45 23 41 23 196 -14z"/>
<path d="M12250 6241 c-93 -30 -561 -217 -840 -336 -146 -63 -454 -193 -685
-290 -405 -170 -582 -251 -672 -308 -39 -25 -43 -31 -43 -68 0 -22 38 -205 84
-407 47 -202 101 -443 121 -537 40 -189 102 -447 271 -1130 62 -253 149 -611
193 -795 98 -418 138 -564 163 -595 18 -24 25 -25 117 -25 92 0 298 14 876 59
269 22 744 45 752 38 2 -3 -1 -85 -7 -184 -6 -98 -10 -277 -8 -398 l3 -220 60
-3 c65 -3 2 -23 845 268 162 56 307 111 322 122 33 23 54 59 63 111 7 34 4 41
-27 70 -19 17 -100 69 -181 115 -87 49 -148 90 -152 102 -6 19 17 81 155 420
99 244 150 379 156 421 8 51 -12 85 -103 168 l-77 71 -295 0 c-449 0 -1331 29
-1373 45 -16 7 -81 206 -71 216 8 7 412 171 624 252 63 25 138 56 166 71 48
24 52 29 62 76 6 28 11 70 11 93 0 23 12 131 27 240 30 218 31 212 -32 221
-242 36 -426 69 -495 91 -47 15 -149 58 -227 96 -83 40 -155 69 -173 69 -34 0
-32 2 -171 -151 -106 -116 -157 -154 -196 -144 -46 11 -145 121 -189 210 -38
77 -39 81 -39 189 0 118 12 172 46 202 20 18 23 18 87 1 37 -10 141 -52 231
-93 l163 -75 29 27 c16 16 60 78 99 139 134 215 303 395 473 504 50 32 105 70
121 83 l29 25 -27 244 c-14 134 -33 323 -41 419 -17 192 -31 281 -49 292 -20
14 -120 7 -176 -11z"/>
<path d="M9210 5020 c-591 -87 -911 -139 -923 -149 -18 -17 49 -531 72 -554 5
-5 92 -17 192 -26 l183 -16 19 -70 c28 -100 30 -412 4 -535 -29 -135 -72 -255
-145 -400 -63 -128 -67 -139 -66 -200 1 -36 31 -213 68 -395 36 -181 77 -395
91 -474 25 -148 40 -185 78 -201 60 -26 1041 -200 1124 -200 49 0 53 2 59 27
8 30 -1 318 -16 503 -13 169 -29 433 -41 675 -5 110 -14 270 -19 355 -5 85
-13 265 -19 400 -6 135 -13 259 -17 275 -3 17 -9 122 -14 235 -17 404 -41 723
-60 793 -8 25 -16 37 -28 36 -9 -1 -253 -36 -542 -79z"/>
<path d="M7305 5008 c-50 -40 -236 -192 -415 -338 -522 -428 -598 -489 -612
-491 -32 -7 -65 22 -224 188 -93 97 -221 231 -285 297 -64 67 -136 144 -160
171 -61 70 -155 162 -177 174 -20 11 -37 2 -347 -182 -144 -86 -475 -290 -567
-351 l-28 -18 43 -82 c55 -103 289 -491 486 -804 l152 -243 -133 -146 c-73
-81 -189 -208 -259 -283 -329 -355 -429 -472 -429 -501 0 -35 4 -39 350 -359
146 -135 305 -283 355 -330 96 -92 177 -160 189 -160 4 0 60 49 124 109 65 60
187 170 272 246 85 76 259 235 385 355 127 119 248 232 270 252 l39 36 56 -38
c31 -21 162 -122 291 -224 257 -205 405 -314 699 -518 239 -166 250 -172 310
-166 54 5 129 55 575 376 235 169 260 190 263 218 2 24 -74 345 -159 667 -8
32 -14 37 -39 37 -16 0 -76 -22 -132 -49 -57 -27 -127 -54 -157 -61 -78 -18
-232 -8 -301 20 -136 54 -344 226 -437 362 -84 121 -131 228 -118 267 3 10 45
49 93 87 47 38 176 144 284 236 109 92 273 227 365 301 93 74 187 155 211 180
l44 44 -78 93 c-107 127 -453 471 -619 615 -6 6 -29 27 -51 47 l-40 38 -89
-72z"/>
<path d="M7831 3921 c-11 -11 -30 -53 -43 -93 -19 -61 -23 -95 -23 -203 0
-142 12 -203 65 -335 36 -90 56 -115 93 -124 26 -6 29 -3 52 46 33 74 49 198
42 337 -6 141 -27 235 -71 321 -28 57 -36 65 -64 68 -21 2 -37 -3 -51 -17z"/>
<path d="M8490 1174 l-35 -5 1 -92 c1 -51 2 -104 3 -119 l1 -28 106 0 106 0
-7 -137 c-4 -76 -11 -178 -15 -228 -4 -49 -4 -94 0 -98 12 -14 126 -21 134 -9
4 6 27 8 61 5 l55 -6 2 234 3 234 105 3 106 3 11 117 c6 64 10 118 9 119 -4 5
-613 11 -646 7z"/>
<path d="M9303 1173 c-24 -2 -43 -7 -43 -11 1 -4 68 -94 150 -201 170 -220
171 -221 119 -317 -60 -112 -69 -133 -69 -170 0 -32 2 -35 15 -24 10 9 54 13
132 14 92 1 117 4 124 16 17 30 303 646 312 673 6 16 -4 17 -129 17 l-135 0
-47 -100 c-26 -55 -49 -100 -52 -100 -3 0 -39 43 -80 96 -41 53 -85 100 -98
105 -23 9 -113 9 -199 2z"/>
<path d="M4340 821 c0 -309 2 -350 16 -355 20 -8 91 -8 177 1 l67 6 0 348 0
349 -130 0 -130 0 0 -349z"/>
<path d="M4848 833 c-2 -186 -2 -346 0 -356 4 -15 18 -17 116 -17 l111 0 4
158 c1 86 5 160 8 165 2 4 54 -64 114 -150 l109 -158 52 -7 c29 -4 77 -5 106
-2 l52 6 0 349 0 349 -105 0 -105 0 0 -185 c0 -103 -4 -185 -9 -185 -9 0 -77
102 -181 270 -28 47 -57 88 -64 92 -6 4 -54 8 -107 8 l-97 0 -4 -337z"/>
<path d="M5766 893 c-4 -153 -9 -310 -13 -350 l-6 -71 64 -7 c35 -3 91 -5 124
-3 l60 3 3 138 3 137 74 0 75 0 0 70 0 70 -80 0 -80 0 0 50 0 50 150 0 150 0
0 95 0 95 -259 0 -258 0 -7 -277z"/>
<path d="M6540 1160 c-13 -8 -16 -60 -18 -349 l-4 -339 86 -7 c47 -4 106 -4
131 -1 l45 7 0 350 0 349 -112 0 c-62 0 -120 -5 -128 -10z"/>
<path d="M7037 1043 c-4 -71 -7 -228 -7 -349 l0 -221 46 -7 c26 -3 78 -6 115
-6 l69 0 0 155 c0 101 4 155 10 155 6 0 22 -12 35 -26 27 -29 182 -249 187
-266 5 -13 201 -18 213 -6 4 3 4 162 0 352 l-8 346 -98 0 -99 0 0 -175 c0
-160 -1 -175 -17 -175 -17 1 -138 177 -208 303 l-27 47 -102 0 -103 0 -6 -127z"/>
<path d="M7956 1118 c-3 -29 -6 -186 -6 -349 l0 -296 53 -7 c90 -10 187 -7
191 7 3 6 7 166 10 355 l5 342 -123 0 -123 0 -7 -52z"/>
</g>
</svg>
